<svg width="32" height="32" viewBox="0 0 32 32" fill="none" xmlns="http://www.w3.org/2000/svg">
<circle cx="16" cy="16" r="13" fill="#CCCCCC"/>
<circle cx="16" cy="16" r="15.5" stroke="#CCCCCC"/>
<path d="M19.4922 19.4619V21H12.6836V19.6875L15.9033 16.2354C16.2269 15.8753 16.4821 15.5586 16.6689 15.2852C16.8558 15.0072 16.9902 14.7588 17.0723 14.54C17.1589 14.3167 17.2021 14.1048 17.2021 13.9043C17.2021 13.6035 17.152 13.346 17.0518 13.1318C16.9515 12.9131 16.8034 12.7445 16.6074 12.626C16.416 12.5075 16.179 12.4482 15.8965 12.4482C15.5957 12.4482 15.3359 12.5212 15.1172 12.667C14.903 12.8128 14.7389 13.0156 14.625 13.2754C14.5156 13.5352 14.4609 13.8291 14.4609 14.1572H12.4854C12.4854 13.5648 12.6266 13.0225 12.9092 12.5303C13.1917 12.0335 13.5905 11.6393 14.1055 11.3477C14.6204 11.0514 15.2311 10.9033 15.9375 10.9033C16.6348 10.9033 17.2227 11.0173 17.7012 11.2451C18.1842 11.4684 18.5488 11.792 18.7949 12.2158C19.0456 12.6351 19.1709 13.1364 19.1709 13.7197C19.1709 14.0479 19.1185 14.3691 19.0137 14.6836C18.9089 14.9935 18.7585 15.3034 18.5625 15.6133C18.3711 15.9186 18.1387 16.2285 17.8652 16.543C17.5918 16.8574 17.2887 17.1833 16.9561 17.5205L15.2266 19.4619H19.4922Z" fill="#201D27"/>
</svg>
