<svg width="23" height="23" viewBox="0 0 23 23" fill="none" xmlns="http://www.w3.org/2000/svg">
<circle cx="11.2552" cy="11.2552" r="9.14483" fill="#29A643"/>
<circle cx="11.2552" cy="11.2552" r="10.7552" stroke="#29A643"/>
<path d="M14.4219 13.9368V15.2551H8.58594V14.1301L11.3457 11.1711C11.623 10.8625 11.8418 10.5911 12.002 10.3567C12.1621 10.1184 12.2773 9.90552 12.3477 9.71802C12.4219 9.52661 12.459 9.34497 12.459 9.1731C12.459 8.91528 12.416 8.69458 12.3301 8.51099C12.2441 8.32349 12.1172 8.17896 11.9492 8.07739C11.7852 7.97583 11.582 7.92505 11.3398 7.92505C11.082 7.92505 10.8594 7.98755 10.6719 8.11255C10.4883 8.23755 10.3477 8.41138 10.25 8.63403C10.1562 8.85669 10.1094 9.10864 10.1094 9.38989H8.41602C8.41602 8.88208 8.53711 8.41724 8.7793 7.99536C9.02148 7.56958 9.36328 7.23169 9.80469 6.98169C10.2461 6.72778 10.7695 6.60083 11.375 6.60083C11.9727 6.60083 12.4766 6.69849 12.8867 6.8938C13.3008 7.08521 13.6133 7.36255 13.8242 7.72583C14.0391 8.08521 14.1465 8.51489 14.1465 9.01489C14.1465 9.29614 14.1016 9.57153 14.0117 9.84106C13.9219 10.1067 13.793 10.3723 13.625 10.6379C13.4609 10.8997 13.2617 11.1653 13.0273 11.4348C12.793 11.7043 12.5332 11.9836 12.248 12.2727L10.7656 13.9368H14.4219Z" fill="white"/>
</svg>
