<svg width="52" height="52" viewBox="0 0 52 52" fill="none" xmlns="http://www.w3.org/2000/svg">
<g id="circle-check-solid 1" clip-path="url(#clip0_160_96)">
<path id="Vector" d="M26 52C40.3609 52 52 40.3609 52 26C52 11.6391 40.3609 0 26 0C11.6391 0 0 11.6391 0 26C0 40.3609 11.6391 52 26 52ZM37.4766 21.2266L24.4766 34.2266C23.5219 35.1813 21.9781 35.1813 21.0336 34.2266L14.5336 27.7266C13.5789 26.7719 13.5789 25.2281 14.5336 24.2836C15.4883 23.3391 17.032 23.3289 17.9766 24.2836L22.75 29.057L34.0234 17.7734C34.9781 16.8188 36.5219 16.8188 37.4664 17.7734C38.4109 18.7281 38.4211 20.2719 37.4664 21.2164L37.4766 21.2266Z" fill="#31B63B"/>
</g>
<defs>
<clipPath id="clip0_160_96">
<rect width="52" height="52" fill="white"/>
</clipPath>
</defs>
</svg>
