<svg fill="none" xmlns="http://www.w3.org/2000/svg" viewBox="7.97 8.03 34.47 34.45">
<path d="M37.3706 37.4215C44.0908 30.7013 44.0908 19.8056 37.3706 13.0853C30.6503 6.36503 19.7546 6.36503 13.0343 13.0853C6.31406 19.8056 6.31406 30.7013 13.0343 37.4215C19.7546 44.1418 30.6503 44.1418 37.3706 37.4215Z" fill="#3E7DDD"/>
<g clip-path="url(#clip0_8_10)">
<path d="M31.914 24.5417L25.4997 21.4754V13.0548L25.5311 13L31.914 24.5417Z" fill="#C0CCF7"/>
<path d="M32.0006 24.6987L25.5311 28.7874L25.4997 28.7677V21.4753L31.914 24.5416L32.0006 24.6987Z" fill="#A6B9FF"/>
<path d="M25.5002 13.0547V21.4754L19.0299 24.6485L25.5002 13.0547Z" fill="white"/>
<path d="M31.914 26.1646L25.4997 30.3314V35.9451L25.5311 35.9999L31.914 26.1646Z" fill="#C0CCF7"/>
<path d="M25.5002 35.9453V30.3315L19.0299 26.0579L25.5002 35.9453Z" fill="white"/>
<path d="M25.4996 21.4753V28.7677L19.0004 24.6987L19.0293 24.6485L25.4996 21.4753Z" fill="#C0CCF7"/>
</g>
<defs>
<clipPath id="clip0_8_10">
<rect width="13" height="23" fill="white" transform="translate(19 13)"/>
</clipPath>
</defs>
</svg>