<svg fill="none" xmlns="http://www.w3.org/2000/svg" viewBox="8 7.97 34.02 35.03">
<path d="M37.0223 37.8741C43.6613 31.0399 43.6613 19.9596 37.0223 13.1254C30.3834 6.29122 19.6196 6.29122 12.9807 13.1254C6.34182 19.9596 6.34182 31.0399 12.9807 37.8741C19.6196 44.7083 30.3834 44.7083 37.0223 37.8741Z" fill="#77BF00"/>
<path d="M29.1322 17.776C28.1405 17.2958 26.9655 17.2774 25.26 17.7226L25.2334 17.7289L24.4071 14.417L22.6758 14.8721L23.5055 18.1901C22.9892 18.3312 22.4195 18.4866 21.8611 18.646L21.0318 15.3009L19.2979 15.7535L20.1205 19.108C19.5149 19.2928 16.5724 20.0151 16.5724 20.0151L17.0223 21.9651L19.2703 21.4279L21.6915 31.1864L19.4648 31.7218L19.9323 33.7057C19.9323 33.7057 22.879 33.0214 23.5497 32.8801L24.3775 36.2531L26.1088 35.798L25.286 32.4759C25.8685 32.3479 26.4463 32.1904 26.9528 32.074L27.7579 35.3783L29.4892 34.9232L28.6893 31.6724C30.5862 31.1229 31.8274 30.361 32.478 29.3277C32.7514 28.8792 32.9316 28.3772 33.0072 27.8535C33.0829 27.3298 33.0523 26.7956 32.9175 26.2846C32.4174 24.2472 30.6808 23.5496 29.3474 23.5567L29.3395 23.517C30.5972 22.6212 31.155 21.2403 30.8296 19.9182C30.5631 18.8318 29.948 18.1223 29.1322 17.776ZM28.3837 27.2751C28.676 28.466 27.9427 29.5875 26.3209 30.0139L24.9329 30.3741L23.9536 26.4067C24.3797 26.204 24.8248 26.0469 25.282 25.9379C26.8297 25.538 28.0298 25.8298 28.3837 27.2751V27.2751ZM27.0718 21.4874C27.1563 21.8059 27.1589 22.1416 27.0792 22.4615C26.9996 22.7814 26.8405 23.0745 26.6176 23.3119C26.264 23.7174 25.7248 24.0393 25.0155 24.2237L25.0057 24.2295L23.6253 24.5892L22.649 20.6202C23.0748 20.4193 23.5195 20.2638 23.9761 20.1561C23.982 20.1526 23.9859 20.1502 23.9918 20.1467C24.6883 19.9699 25.3106 19.9315 25.8175 20.0747C26.4346 20.2509 26.8806 20.6984 27.0718 21.4874V21.4874Z" fill="white"/>
</svg>