<svg width="34" height="34" viewBox="0 0 34 34" fill="none" xmlns="http://www.w3.org/2000/svg">
<path d="M17 34C26.3888 34 34 26.3888 34 17C34 7.61116 26.3888 0 17 0C7.61116 0 0 7.61116 0 17C0 26.3888 7.61116 34 17 34Z" fill="#907EFF"/>
<path d="M22.0642 18.7108C21.7046 18.6247 21.3338 18.5909 20.9639 18.6107C20.6954 18.6217 20.4296 18.5556 20.2 18.4208C19.9704 18.2861 19.7873 18.0886 19.6737 17.8534L19.5604 17.6258C19.4569 17.4158 19.4121 17.1832 19.4306 16.9513C19.4491 16.7193 19.5302 16.4961 19.6658 16.3039L19.8981 15.9756C20.024 15.7934 20.1954 15.6447 20.3964 15.5433C20.5974 15.4418 20.8215 15.3909 21.0483 15.395C21.3632 15.4043 21.6781 15.375 21.9855 15.308C23.6201 14.9557 24.8626 13.5938 24.9884 11.9813C25.0321 11.429 24.9468 10.8742 24.7388 10.358C24.5309 9.84175 24.2055 9.37721 23.7867 8.99866C23.368 8.6201 22.8665 8.33719 22.3194 8.17081C21.7723 8.00443 21.1934 7.95883 20.6256 8.03738C19.0601 8.2453 17.5564 9.72865 17.3689 11.2443C17.2591 12.0983 17.4626 12.9625 17.9439 13.6868C18.2505 14.1475 18.2578 14.7357 17.9275 15.1805L17.6284 15.5843C17.499 15.7589 17.3279 15.9007 17.1296 15.9976C16.9313 16.0946 16.7117 16.1439 16.4895 16.1414V16.1414C16.2355 16.1384 15.9874 16.0672 15.773 15.9357C15.5586 15.8043 15.3862 15.6179 15.2753 15.3972C14.9011 14.6473 14.2758 14.0414 13.5006 13.6775C12.7254 13.3136 11.8457 13.213 11.004 13.3921C10.1622 13.5711 9.40769 14.0193 8.86258 14.6641C8.31747 15.3089 8.0137 16.1125 8.00045 16.9448C7.9872 17.7771 8.26526 18.5893 8.78959 19.2499C9.31392 19.9106 10.0538 20.381 10.8895 20.585C11.7251 20.7889 12.6076 20.7145 13.3941 20.3738C14.1805 20.0331 14.8248 19.4459 15.2226 18.7075C15.3397 18.498 15.5138 18.3233 15.7262 18.2024C15.9386 18.0814 16.1812 18.0189 16.4277 18.0214H16.5632C16.7827 18.0214 16.999 18.072 17.1942 18.1691C17.3893 18.2662 17.5576 18.4069 17.685 18.5795L17.8941 18.8629C18.2216 19.3061 18.2176 19.8899 17.9196 20.3523C17.4534 21.0754 17.2606 21.932 17.374 22.7768C17.5683 24.2831 19.0737 25.756 20.6285 25.9629C21.1966 26.0412 21.7757 25.9952 22.3229 25.8284C22.8702 25.6616 23.3716 25.3781 23.7902 24.9989C24.2088 24.6198 24.5338 24.1546 24.7411 23.6379C24.9485 23.1211 25.033 22.566 24.9884 22.0135C24.8626 20.4305 23.6603 19.09 22.0642 18.7108Z" fill="white"/>
</svg>
